<svg width="93" height="55" viewBox="0 0 93 55" fill="none" xmlns="http://www.w3.org/2000/svg">
<path d="M18.1093 7.084C18.1093 7.78 17.8693 8.36 17.3893 8.824C16.9173 9.28 16.1933 9.508 15.2173 9.508H13.6093V13H12.5173V4.636H15.2173C16.1613 4.636 16.8773 4.864 17.3653 5.32C17.8613 5.776 18.1093 6.364 18.1093 7.084ZM15.2173 8.608C15.8253 8.608 16.2733 8.476 16.5613 8.212C16.8493 7.948 16.9933 7.572 16.9933 7.084C16.9933 6.052 16.4013 5.536 15.2173 5.536H13.6093V8.608H15.2173ZM22.3345 13.108C21.7185 13.108 21.1585 12.968 20.6545 12.688C20.1585 12.408 19.7665 12.012 19.4785 11.5C19.1985 10.98 19.0585 10.38 19.0585 9.7C19.0585 9.028 19.2025 8.436 19.4905 7.924C19.7865 7.404 20.1865 7.008 20.6905 6.736C21.1945 6.456 21.7585 6.316 22.3825 6.316C23.0065 6.316 23.5705 6.456 24.0745 6.736C24.5785 7.008 24.9745 7.4 25.2625 7.912C25.5585 8.424 25.7065 9.02 25.7065 9.7C25.7065 10.38 25.5545 10.98 25.2505 11.5C24.9545 12.012 24.5505 12.408 24.0385 12.688C23.5265 12.968 22.9585 13.108 22.3345 13.108ZM22.3345 12.148C22.7265 12.148 23.0945 12.056 23.4385 11.872C23.7825 11.688 24.0585 11.412 24.2665 11.044C24.4825 10.676 24.5905 10.228 24.5905 9.7C24.5905 9.172 24.4865 8.724 24.2785 8.356C24.0705 7.988 23.7985 7.716 23.4625 7.54C23.1265 7.356 22.7625 7.264 22.3705 7.264C21.9705 7.264 21.6025 7.356 21.2665 7.54C20.9385 7.716 20.6745 7.988 20.4745 8.356C20.2745 8.724 20.1745 9.172 20.1745 9.7C20.1745 10.236 20.2705 10.688 20.4625 11.056C20.6625 11.424 20.9265 11.7 21.2545 11.884C21.5825 12.06 21.9425 12.148 22.3345 12.148ZM35.9023 6.424L33.8503 13H32.7223L31.1383 7.78L29.5543 13H28.4263L26.3623 6.424H27.4783L28.9903 11.944L30.6223 6.424H31.7383L33.3343 11.956L34.8223 6.424H35.9023ZM42.986 9.46C42.986 9.668 42.974 9.888 42.95 10.12H37.694C37.734 10.768 37.954 11.276 38.354 11.644C38.762 12.004 39.254 12.184 39.83 12.184C40.302 12.184 40.694 12.076 41.006 11.86C41.326 11.636 41.55 11.34 41.678 10.972H42.854C42.678 11.604 42.326 12.12 41.798 12.52C41.27 12.912 40.614 13.108 39.83 13.108C39.206 13.108 38.646 12.968 38.15 12.688C37.662 12.408 37.278 12.012 36.998 11.5C36.718 10.98 36.578 10.38 36.578 9.7C36.578 9.02 36.714 8.424 36.986 7.912C37.258 7.4 37.638 7.008 38.126 6.736C38.622 6.456 39.19 6.316 39.83 6.316C40.454 6.316 41.006 6.452 41.486 6.724C41.966 6.996 42.334 7.372 42.59 7.852C42.854 8.324 42.986 8.86 42.986 9.46ZM41.858 9.232C41.858 8.816 41.766 8.46 41.582 8.164C41.398 7.86 41.146 7.632 40.826 7.48C40.514 7.32 40.166 7.24 39.782 7.24C39.23 7.24 38.758 7.416 38.366 7.768C37.982 8.12 37.762 8.608 37.706 9.232H41.858ZM45.5194 7.492C45.7114 7.116 45.9834 6.824 46.3354 6.616C46.6954 6.408 47.1314 6.304 47.6434 6.304V7.432H47.3554C46.1314 7.432 45.5194 8.096 45.5194 9.424V13H44.4274V6.424H45.5194V7.492ZM54.904 9.46C54.904 9.668 54.892 9.888 54.868 10.12H49.612C49.652 10.768 49.872 11.276 50.272 11.644C50.68 12.004 51.172 12.184 51.748 12.184C52.22 12.184 52.612 12.076 52.924 11.86C53.244 11.636 53.468 11.34 53.596 10.972H54.772C54.596 11.604 54.244 12.12 53.716 12.52C53.188 12.912 52.532 13.108 51.748 13.108C51.124 13.108 50.564 12.968 50.068 12.688C49.58 12.408 49.196 12.012 48.916 11.5C48.636 10.98 48.496 10.38 48.496 9.7C48.496 9.02 48.632 8.424 48.904 7.912C49.176 7.4 49.556 7.008 50.044 6.736C50.54 6.456 51.108 6.316 51.748 6.316C52.372 6.316 52.924 6.452 53.404 6.724C53.884 6.996 54.252 7.372 54.508 7.852C54.772 8.324 54.904 8.86 54.904 9.46ZM53.776 9.232C53.776 8.816 53.684 8.46 53.5 8.164C53.316 7.86 53.064 7.632 52.744 7.48C52.432 7.32 52.084 7.24 51.7 7.24C51.148 7.24 50.676 7.416 50.284 7.768C49.9 8.12 49.68 8.608 49.624 9.232H53.776ZM55.9374 9.688C55.9374 9.016 56.0734 8.428 56.3454 7.924C56.6174 7.412 56.9894 7.016 57.4614 6.736C57.9414 6.456 58.4774 6.316 59.0694 6.316C59.5814 6.316 60.0574 6.436 60.4974 6.676C60.9374 6.908 61.2734 7.216 61.5054 7.6V4.12H62.6094V13H61.5054V11.764C61.2894 12.156 60.9694 12.48 60.5454 12.736C60.1214 12.984 59.6254 13.108 59.0574 13.108C58.4734 13.108 57.9414 12.964 57.4614 12.676C56.9894 12.388 56.6174 11.984 56.3454 11.464C56.0734 10.944 55.9374 10.352 55.9374 9.688ZM61.5054 9.7C61.5054 9.204 61.4054 8.772 61.2054 8.404C61.0054 8.036 60.7334 7.756 60.3894 7.564C60.0534 7.364 59.6814 7.264 59.2734 7.264C58.8654 7.264 58.4934 7.36 58.1574 7.552C57.8214 7.744 57.5534 8.024 57.3534 8.392C57.1534 8.76 57.0534 9.192 57.0534 9.688C57.0534 10.192 57.1534 10.632 57.3534 11.008C57.5534 11.376 57.8214 11.66 58.1574 11.86C58.4934 12.052 58.8654 12.148 59.2734 12.148C59.6814 12.148 60.0534 12.052 60.3894 11.86C60.7334 11.66 61.0054 11.376 61.2054 11.008C61.4054 10.632 61.5054 10.196 61.5054 9.7ZM68.746 7.648C68.97 7.256 69.298 6.936 69.73 6.688C70.162 6.44 70.654 6.316 71.206 6.316C71.798 6.316 72.33 6.456 72.802 6.736C73.274 7.016 73.646 7.412 73.918 7.924C74.19 8.428 74.326 9.016 74.326 9.688C74.326 10.352 74.19 10.944 73.918 11.464C73.646 11.984 73.27 12.388 72.79 12.676C72.318 12.964 71.79 13.108 71.206 13.108C70.638 13.108 70.138 12.984 69.706 12.736C69.282 12.488 68.962 12.172 68.746 11.788V13H67.654V4.12H68.746V7.648ZM73.21 9.688C73.21 9.192 73.11 8.76 72.91 8.392C72.71 8.024 72.438 7.744 72.094 7.552C71.758 7.36 71.386 7.264 70.978 7.264C70.578 7.264 70.206 7.364 69.862 7.564C69.526 7.756 69.254 8.04 69.046 8.416C68.846 8.784 68.746 9.212 68.746 9.7C68.746 10.196 68.846 10.632 69.046 11.008C69.254 11.376 69.526 11.66 69.862 11.86C70.206 12.052 70.578 12.148 70.978 12.148C71.386 12.148 71.758 12.052 72.094 11.86C72.438 11.66 72.71 11.376 72.91 11.008C73.11 10.632 73.21 10.192 73.21 9.688ZM81.4274 6.424L77.4674 16.096H76.3394L77.6354 12.928L74.9834 6.424H76.1954L78.2594 11.752L80.2994 6.424H81.4274Z" fill="#9CA3AF"/>
<g clip-path="url(#clip0_1_85100)">
<path d="M4.37891 27.9838H8.74197V45.4294H4.37891V27.9838Z" fill="#1341A3"/>
<path d="M32.9272 21.9902H37.2903V45.4293H32.9272V21.9902Z" fill="#1341A3"/>
<path d="M6.56348 26.3467C7.76649 26.3467 8.74171 25.3715 8.74171 24.1685C8.74171 22.9655 7.76649 21.9902 6.56348 21.9902C5.36048 21.9902 4.38525 22.9655 4.38525 24.1685C4.38525 25.3715 5.36048 26.3467 6.56348 26.3467Z" fill="#1341A3"/>
<path d="M62.2275 27.9838H66.5906V45.4294H62.2275V27.9838Z" fill="#1341A3"/>
<path d="M64.4058 26.3467C65.6088 26.3467 66.584 25.3715 66.584 24.1685C66.584 22.9655 65.6088 21.9902 64.4058 21.9902C63.2028 21.9902 62.2275 22.9655 62.2275 24.1685C62.2275 25.3715 63.2028 26.3467 64.4058 26.3467Z" fill="#1341A3"/>
<path d="M39.092 27.9838H43.4551V45.4294H39.092V27.9838Z" fill="#1341A3"/>
<path d="M56.1092 28.7229C55.1191 28.2543 54.0102 27.9902 52.8353 27.9902C51.6603 27.9902 50.558 28.2543 49.5613 28.7229V27.9902H45.1982V35.6206V45.4359H49.5613V35.6206C49.5613 33.8186 51.0267 32.3533 52.8353 32.3533C54.6438 32.3533 56.1092 33.8186 56.1092 35.6206V45.4359H60.4723V35.6206C60.4723 32.5711 58.6901 29.944 56.1092 28.7229Z" fill="#1341A3"/>
<path d="M41.2703 26.3467C42.4733 26.3467 43.4485 25.3715 43.4485 24.1685C43.4485 22.9655 42.4733 21.9902 41.2703 21.9902C40.0673 21.9902 39.092 22.9655 39.092 24.1685C39.092 25.3715 40.0673 26.3467 41.2703 26.3467Z" fill="#1341A3"/>
<path d="M89.6075 27.9837H85.7923V24.1685H81.4292V27.9837H77.614V32.3467H81.4292V36.1619H85.7923V32.3467H89.6075V27.9837Z" fill="#3FC4F2"/>
<path d="M85.772 37.2511H81.4288H81.3958C81.1251 39.3963 79.2901 41.0663 77.0723 41.0663C74.6697 41.0663 72.7093 39.1125 72.7093 36.7033C72.7093 34.4854 74.3792 32.6438 76.5245 32.3798V28.0035C71.9634 28.2874 68.3462 32.0762 68.3462 36.7099C68.3462 41.5284 72.2538 45.4294 77.0657 45.4294C78.6565 45.4294 80.1416 45.0069 81.4288 44.2611V53.7067H85.7918V37.2511H85.772Z" fill="#1341A3"/>
<path d="M27.9038 38.3864C27.752 38.5712 27.5936 38.7494 27.422 38.9144C26.0292 40.3072 24.1811 41.0729 22.2206 41.0729C20.2602 41.0729 18.4054 40.3072 17.0193 38.9144C15.6265 37.5217 14.8609 35.6735 14.8609 33.7131C14.8609 31.7527 15.6265 29.8979 17.0193 28.5117C18.412 27.119 20.2602 26.3533 22.2206 26.3533C24.1811 26.3533 26.0358 27.119 27.422 28.5117C27.5936 28.6833 27.752 28.8616 27.9038 29.0398L31.2042 26.1883C29.0524 23.6272 25.8246 21.9902 22.2206 21.9902C15.7454 21.9902 10.4978 27.2378 10.4978 33.7131C10.4978 40.1884 15.7454 45.4359 22.2206 45.4359C25.8312 45.4359 29.0524 43.8055 31.2042 41.2379L27.9038 38.3864Z" fill="#1341A3"/>
<path d="M6.06868 49.2644H4.3855V48.5581H8.51094V49.2644H6.82116V53.7067H6.06868V49.2644Z" fill="#1341A3"/>
<path d="M12.9602 51.2445V53.7065H12.2341V51.3699C12.2341 50.7956 11.8645 50.3864 11.343 50.3864C10.7555 50.3864 10.2737 50.7956 10.2737 51.2973V53.6999H9.54102V48.4656H10.2737V50.4062C10.5047 50.0167 10.98 49.7395 11.508 49.7395C12.3661 49.7461 12.9602 50.3666 12.9602 51.2445Z" fill="#1341A3"/>
<path d="M17.0921 52.7165L17.5541 53.1984C17.2109 53.568 16.5376 53.799 15.9897 53.799C14.9138 53.799 13.9963 52.9541 13.9963 51.766C13.9963 50.6043 14.8544 49.7528 15.9303 49.7528C17.1119 49.7528 17.7917 50.6505 17.7917 52.0366H14.7422C14.8412 52.6835 15.3099 53.1456 15.9765 53.1456C16.3924 53.139 16.861 52.9607 17.0921 52.7165ZM14.762 51.436H17.0855C16.9997 50.8353 16.6366 50.3997 15.9699 50.3997C15.3627 50.4063 14.8808 50.8089 14.762 51.436Z" fill="#1341A3"/>
<path d="M26.0891 48.5647L23.8779 53.7066H23.0396L20.8284 48.5647H21.6667L23.4555 52.7363L25.2442 48.5647H26.0891Z" fill="#1341A3"/>
<path d="M26.9268 48.743C26.9268 48.512 27.1248 48.3008 27.3756 48.3008C27.6132 48.3008 27.8179 48.512 27.8179 48.743C27.8179 48.9807 27.6132 49.1919 27.3756 49.1919C27.1182 49.1919 26.9268 48.9807 26.9268 48.743ZM26.9994 49.8321H27.7386V53.7002H26.9994V49.8321Z" fill="#1341A3"/>
<path d="M31.2175 49.7462V50.3931C30.4189 50.3931 29.8446 50.8353 29.7786 51.5086V53.7066H29.0393V49.8386H29.7786V50.5779C30.0294 50.0696 30.5509 49.7462 31.2175 49.7462Z" fill="#1341A3"/>
<path d="M34.2144 53.5217C34.0032 53.6933 33.7193 53.7989 33.4421 53.7989C32.8414 53.7989 32.4256 53.3632 32.4256 52.7428V50.4655H31.8447V49.8385H32.4256V48.7758H33.1517V49.8385H34.0626V50.4655H33.1517V52.69C33.1517 52.9606 33.3299 53.152 33.5477 53.152C33.7127 53.152 33.8645 53.0926 33.9437 53.0068L34.2144 53.5217Z" fill="#1341A3"/>
<path d="M38.5639 49.8322V53.7002H37.8181V53.1391C37.587 53.5219 37.1118 53.7926 36.5903 53.7926C35.7388 53.7926 35.1382 53.1721 35.1382 52.2942V49.8322H35.8643V52.1688C35.8643 52.7431 36.2339 53.1523 36.7554 53.1523C37.2966 53.1523 37.7587 52.8025 37.8181 52.3404V49.8322H38.5639Z" fill="#1341A3"/>
<path d="M43.0657 51.3634V53.7066H42.3396V53.172C42.0558 53.5746 41.5211 53.7924 41.0525 53.7924C40.2274 53.7924 39.6201 53.3106 39.6201 52.5581C39.6201 51.7858 40.3132 51.271 41.1713 51.271C41.5541 51.271 41.9634 51.3568 42.3396 51.4822V51.3634C42.3396 50.8749 42.1152 50.3601 41.3429 50.3601C40.9601 50.3601 40.5838 50.5119 40.2472 50.6835L39.9766 50.1357C40.531 49.8584 41.0195 49.7462 41.4419 49.7462C42.4914 49.7462 43.0657 50.4063 43.0657 51.3634ZM42.3396 52.4921V51.9773C42.0228 51.8782 41.6663 51.8254 41.2835 51.8254C40.7686 51.8254 40.333 52.1159 40.333 52.5383C40.333 52.9542 40.7092 53.2116 41.1911 53.2116C41.6795 53.2116 42.2142 52.974 42.3396 52.4921Z" fill="#1341A3"/>
<path d="M44.3267 48.4723H45.0593V53.7066H44.3267V48.4723Z" fill="#1341A3"/>
<path d="M52.9997 48.5647V53.7066H52.2406V51.436H49.4353V53.7066H48.6763V48.5647H49.4353V50.7363H52.2406V48.5647H52.9997Z" fill="#1341A3"/>
<path d="M54.0754 51.766C54.0754 50.6637 55.0127 49.7462 56.1217 49.7462C57.224 49.7462 58.1481 50.6637 58.1481 51.766C58.1481 52.8683 57.2174 53.7924 56.1217 53.7924C55.0127 53.7924 54.0754 52.8683 54.0754 51.766ZM57.4088 51.766C57.4088 51.0201 56.8147 50.3865 56.1217 50.3865C55.4088 50.3865 54.8213 51.0135 54.8213 51.766C54.8213 52.5251 55.4154 53.1522 56.1217 53.1522C56.8147 53.1522 57.4088 52.5251 57.4088 51.766Z" fill="#1341A3"/>
<path d="M58.9473 53.2182L59.2971 52.6835C59.7063 52.9806 60.1486 53.1588 60.604 53.1588C61.0397 53.1588 61.3367 52.9542 61.3367 52.6571C61.3367 52.3007 60.9407 52.1819 60.4588 52.0499C59.5677 51.8056 59.1255 51.5482 59.1255 50.9211C59.1189 50.2083 59.7063 49.7462 60.5314 49.7462C61.0331 49.7462 61.5413 49.9178 61.9638 50.1951L61.6338 50.7429C61.2575 50.5119 60.8681 50.3865 60.5314 50.3865C60.1486 50.3865 59.8516 50.5515 59.8516 50.8419C59.8516 51.139 60.0892 51.2314 60.7427 51.436C61.3763 51.6208 62.0628 51.832 62.0628 52.6043C62.0628 53.337 61.4423 53.8056 60.5974 53.8056C60.0364 53.7924 59.4159 53.5944 58.9473 53.2182Z" fill="#1341A3"/>
<path d="M67.0529 51.766C67.0529 52.9542 66.2872 53.7925 65.2707 53.7925C64.67 53.7925 64.1948 53.5086 63.8911 53.0268V54.9872H63.1584V49.8254H63.8911V50.4921C64.1882 50.0169 64.67 49.733 65.2707 49.733C66.2872 49.7462 67.0529 50.5845 67.0529 51.766ZM66.3004 51.766C66.3004 50.9542 65.7987 50.3865 65.0858 50.3865C64.3862 50.3865 63.8845 50.9542 63.8845 51.766C63.8845 52.5779 64.3862 53.1522 65.0858 53.1522C65.7987 53.1522 66.3004 52.5779 66.3004 51.766Z" fill="#1341A3"/>
<path d="M68.0559 48.743C68.0559 48.512 68.2473 48.3008 68.5048 48.3008C68.7424 48.3008 68.947 48.512 68.947 48.743C68.947 48.9807 68.7424 49.1919 68.5048 49.1919C68.2473 49.1919 68.0559 48.9807 68.0559 48.743ZM68.1285 49.8321H68.8678V53.7002H68.1285V49.8321Z" fill="#1341A3"/>
<path d="M72.2078 53.5217C71.9966 53.6933 71.7127 53.7989 71.4355 53.7989C70.8348 53.7989 70.419 53.3632 70.419 52.7428V50.4655H69.8381V49.8385H70.419V48.7758H71.1451V49.8385H72.056V50.4655H71.1451V52.69C71.1451 52.9606 71.3233 53.152 71.5411 53.152C71.7061 53.152 71.858 53.0926 71.9372 53.0068L72.2078 53.5217Z" fill="#1341A3"/>
<path d="M76.3926 51.3634V53.7066H75.6665V53.172C75.3827 53.5746 74.848 53.7924 74.3794 53.7924C73.5543 53.7924 72.947 53.3106 72.947 52.5581C72.947 51.7858 73.6467 51.271 74.4982 51.271C74.881 51.271 75.2903 51.3568 75.6665 51.4822V51.3634C75.6665 50.8749 75.4421 50.3601 74.6698 50.3601C74.287 50.3601 73.9107 50.5119 73.5741 50.6835L73.3035 50.1357C73.8579 49.8584 74.3464 49.7462 74.7688 49.7462C75.8183 49.7462 76.3926 50.4063 76.3926 51.3634ZM75.6665 52.4921V51.9773C75.3497 51.8782 74.9932 51.8254 74.6104 51.8254C74.0955 51.8254 73.6599 52.1159 73.6599 52.5383C73.6599 52.9542 74.0361 53.2116 74.518 53.2116C74.9998 53.2116 75.5411 52.974 75.6665 52.4921Z" fill="#1341A3"/>
<path d="M77.6538 48.4723H78.3865V53.7066H77.6538V48.4723Z" fill="#1341A3"/>
</g>
<defs>
<clipPath id="clip0_1_85100">
<rect width="92.8058" height="33.9936" fill="white" transform="translate(0.194336 21)"/>
</clipPath>
</defs>
</svg>
