<svg width="208" height="45" viewBox="0 0 208 45" fill="none" xmlns="http://www.w3.org/2000/svg">
<g clip-path="url(#clip0_253_3382)">
<path d="M52.5933 20.3424H48.8236V19.7877C50.1618 19.562 50.3569 19.2024 50.3569 17.8207V11.9792C50.3569 11.4229 50.0877 11.1537 48.8236 11.1086V10.462H52.3982L55.1311 17.9997H55.2504L57.9705 10.462H61.5434V11.1086C60.2809 11.1537 59.9666 11.2891 59.9666 11.755V19.0509C59.9666 19.5169 60.2809 19.6523 61.5434 19.6974V20.3424H57.1433V19.6974C58.3155 19.6523 58.4493 19.5475 58.4493 19.0509V11.7098H58.3461L55.1311 20.3424H54.5297L51.2728 11.7098H51.1664V17.8207C51.1664 19.2024 51.2728 19.533 52.5933 19.7877V20.3424ZM61.7711 17.1204H61.7688V16.919H61.7708C61.8088 14.9066 63.104 13.3774 65.0291 13.3774C67.1589 13.3774 67.9554 15.117 67.8361 16.8148H63.225V16.8599C63.225 18.4367 63.9924 19.6363 65.4628 19.6363C66.306 19.6363 66.9945 19.1251 67.5959 18.3916L67.9699 18.7657C67.4153 19.6975 66.543 20.5085 65.0291 20.5085C62.9645 20.5085 61.8135 19.0474 61.7711 17.1204ZM63.241 16.2747L66.3931 16.1989C66.456 14.9526 65.9884 13.9627 64.9211 13.9627C64.0069 13.9627 63.3749 14.6075 63.241 16.2747ZM71.7475 19.712C70.9978 19.6975 70.8914 19.5476 70.8914 19.1864V14.9671C71.3267 14.6979 71.762 14.4124 72.4375 14.4124C73.3082 14.4124 73.7887 14.7736 73.7887 16.0184V19.1864C73.7887 19.5476 73.6694 19.6975 72.9196 19.712V20.3424H76.1474V19.712C75.2752 19.6975 75.1414 19.5476 75.1414 19.1864V15.5556C75.1414 15.3895 75.1252 15.2395 75.1107 15.1025C75.7121 14.6816 76.22 14.4124 76.7472 14.4124C77.6195 14.4124 78.037 14.7736 78.037 16.0184V19.1864C78.037 19.5476 77.9209 19.6975 77.168 19.712V20.3424H80.4845V19.712C79.6155 19.6975 79.3898 19.5476 79.3898 19.1864V15.4637C79.3898 14.1126 78.7432 13.3774 77.7081 13.3774C76.7633 13.3774 75.8911 13.8578 75.0043 14.6237C74.7657 13.8432 74.1659 13.3774 73.3985 13.3774C72.4085 13.3774 71.6572 13.9029 70.8624 14.4577V13.4225L68.4439 13.4822V14.1126C69.3146 14.1271 69.5386 14.3979 69.5386 14.8478V19.1864C69.5386 19.5476 69.3146 19.6975 68.4439 19.712V20.3424H71.7475V19.712ZM80.7666 16.9647C80.7666 14.8784 82.1177 13.3774 84.175 13.3774C86.292 13.3774 87.5689 14.8188 87.5689 16.905C87.5689 19.0059 86.2162 20.5085 84.175 20.5085C82.0274 20.5085 80.7666 19.0671 80.7666 16.9647ZM82.2693 16.9357C82.2693 18.9478 83.0351 19.8635 84.2347 19.8635C85.4052 19.8635 86.0678 18.9478 86.0678 16.9357C86.0678 14.9236 85.302 14.0223 84.0992 14.0223C82.9142 14.0223 82.2693 14.9235 82.2693 16.9357ZM92.4412 13.3774C91.6592 13.3774 91.0143 13.9319 90.4903 14.5931V13.4225L88.0719 13.4822V14.1126C88.9425 14.1271 89.1667 14.3979 89.1667 14.8478V19.1864C89.1667 19.5476 88.9425 19.6975 88.0719 19.712V20.3424H91.7802V19.712C90.7886 19.6975 90.5178 19.5476 90.5178 19.1864V15.1476C90.8354 14.7575 91.2691 14.3076 91.9462 14.3366C91.9301 14.4285 91.9156 14.5189 91.9156 14.5931C91.9156 15.1331 92.3219 15.3895 92.7717 15.3895C93.2377 15.3895 93.5811 14.9816 93.5811 14.5027C93.5811 13.9029 93.2071 13.3774 92.4412 13.3774ZM97.6618 19.712C96.775 19.6975 96.5639 19.5476 96.5639 19.1864V13.4225L94.1325 13.4822V14.1126C95.0015 14.1271 95.2127 14.3979 95.2127 14.8478V19.1864C95.2127 19.5476 94.9886 19.6975 94.1164 19.712V20.3424H97.6618V19.712ZM95.8576 11.786C96.3994 11.786 96.7589 11.4088 96.7589 10.8541C96.7589 10.2979 96.3994 9.92388 95.8576 9.92388C95.3192 9.92388 94.958 10.3285 94.958 10.8847C94.958 11.4394 95.3192 11.786 95.8576 11.786ZM104.79 19.6218L104.849 20.1183C104.309 20.3134 103.979 20.4021 103.543 20.4021C102.747 20.4021 102.521 20.1022 102.447 19.2477H102.344C101.742 19.9232 101.02 20.4343 100.135 20.4343C98.8742 20.4343 98.2729 19.712 98.2729 18.8576C98.2729 18.2561 98.5583 17.6403 99.1886 17.2952C100.33 16.6649 102.117 16.4084 102.344 16.2295V15.8103C102.344 14.4721 101.967 14.0062 100.991 14.0062C100.509 14.0062 100.24 14.1126 99.9835 14.3366C100.104 14.5931 100.151 14.8333 100.151 15.0444C100.151 15.4927 99.8642 15.8683 99.3547 15.8683C98.8291 15.8683 98.5276 15.4798 98.5276 15.0444C98.5276 14.0513 99.761 13.3774 101.201 13.3774C102.761 13.3774 103.693 14.082 103.693 15.5233V18.7979C103.693 19.5331 103.798 19.7427 104.79 19.6218ZM102.344 16.8148C100.209 17.2952 99.79 17.6112 99.79 18.5125C99.79 19.051 100.074 19.5331 100.856 19.5331C101.457 19.5331 102.01 19.0816 102.344 18.6156V16.8148ZM106.4 11.3039V19.1864C106.4 19.5476 106.16 19.6975 105.29 19.712V20.3424H108.862V19.712C107.977 19.6975 107.752 19.5476 107.752 19.1864V9.87875L105.244 9.93839V10.5688C106.115 10.5833 106.4 10.8541 106.4 11.3039ZM113.64 20.1341C114.211 20.3727 114.977 20.5822 115.788 20.5822C118.282 20.5822 119.198 18.8104 119.198 17.3253C119.198 15.4633 117.711 14.9811 116.342 14.5185C114.738 13.9767 113.971 13.5559 113.971 12.5805C113.971 11.5889 114.722 10.9891 115.685 10.9891C116.855 10.9891 117.652 11.6792 118.147 13.0448H118.732V10.1475H118.313L117.8 10.6006C117.319 10.4183 116.796 10.2233 115.954 10.2233C114.092 10.2233 112.576 11.3632 112.576 13.2415C112.576 15.0876 114.076 15.539 115.443 16.0179C117.261 16.6644 117.966 17.1013 117.966 18.151C117.966 18.9313 117.426 19.8164 116.03 19.8164C114.782 19.8164 113.776 19.1569 112.981 17.4141H112.396V20.6435H112.847L113.64 20.1341ZM120.831 11.3039V19.1864C120.831 19.5476 120.591 19.6975 119.72 19.712V20.3424H123.295V19.712C122.408 19.6975 122.182 19.5476 122.182 19.1864V9.87875L119.673 9.93839V10.5688C120.546 10.5833 120.831 10.8541 120.831 11.3039ZM126.966 20.5085C124.818 20.5085 123.559 19.0671 123.559 16.9647C123.559 14.8784 124.909 13.3774 126.966 13.3774C129.081 13.3774 130.361 14.8188 130.361 16.905C130.361 19.0059 129.01 20.5085 126.966 20.5085ZM127.027 19.8635C128.198 19.8635 128.859 18.9478 128.859 16.9357C128.859 14.9236 128.093 14.0223 126.89 14.0223C125.703 14.0223 125.06 14.9235 125.06 16.9357C125.06 18.9479 125.826 19.8635 127.027 19.8635ZM137.617 19.6218L137.679 20.1183C137.135 20.3134 136.807 20.4021 136.37 20.4021C135.574 20.4021 135.35 20.1022 135.276 19.2477H135.171C134.571 19.9232 133.85 20.4343 132.964 20.4343C131.703 20.4343 131.101 19.712 131.101 18.8576C131.101 18.2561 131.388 17.6403 132.019 17.2952C133.159 16.6649 134.947 16.4084 135.171 16.2295V15.8103C135.171 14.4721 134.797 14.0062 133.818 14.0062C133.339 14.0062 133.07 14.1126 132.812 14.3366C132.933 14.5931 132.978 14.8333 132.978 15.0444C132.978 15.4927 132.693 15.8683 132.183 15.8683C131.656 15.8683 131.356 15.4798 131.356 15.0444C131.356 14.0513 132.588 13.3774 134.029 13.3774C135.588 13.3774 136.52 14.082 136.52 15.5233V18.7979C136.52 19.5331 136.628 19.7427 137.617 19.6218ZM135.171 16.8148C133.039 17.2952 132.619 17.6112 132.619 18.5125C132.619 19.051 132.902 19.5331 133.684 19.5331C134.286 19.5331 134.84 19.0816 135.171 18.6156V16.8148ZM144.952 19.1864V15.4637C144.952 14.1126 144.246 13.3774 143.211 13.3774C142.22 13.3774 141.335 13.9029 140.54 14.4577V13.4225L138.118 13.4822V14.1126C138.992 14.1271 139.216 14.3979 139.216 14.8478V19.1864C139.216 19.5476 138.992 19.6975 138.118 19.712V20.3424H141.513V19.712C140.762 19.6975 140.567 19.5476 140.567 19.1864V14.9671C141.002 14.6979 141.589 14.4124 142.265 14.4124C143.135 14.4124 143.603 14.7575 143.603 16.0037V19.1864C143.603 19.5476 143.408 19.6975 142.64 19.712V20.3424H146.049V19.712C145.162 19.6975 144.952 19.5476 144.952 19.1864ZM156.876 18.4366L153.961 14.4718L155.96 12.5208C157.038 11.468 157.504 11.1843 158.599 11.0183V10.462H154.712V11.0472C155.868 11.1843 155.913 11.5889 155.162 12.3386L151.934 15.5988V11.755C151.934 11.2601 152.024 11.1537 153.361 11.1086V10.462H148.843V11.1086C150.102 11.1537 150.418 11.2891 150.418 11.755V19.0509C150.418 19.5169 150.102 19.6523 148.843 19.6974V20.3424H153.182V19.6974C152.024 19.6523 151.934 19.5475 151.934 19.0509V16.4389L152.985 15.4167L155.313 18.6624C155.823 19.3523 155.597 19.6072 154.531 19.7426V20.3424H158.901V19.7281C157.672 19.533 157.443 19.1863 156.876 18.4366ZM173.876 19.6363C173.244 19.6363 172.975 19.2912 172.975 18.4674V14.2174H175.106V13.4822H172.975V10.9734L171.654 11.5152V13.4822H167.981V10.9734L166.66 11.5152V13.4515L165.398 13.7207V14.2174H166.628V18.6318C166.628 19.8023 167.201 20.5085 168.342 20.5085C169.301 20.5085 169.796 20.1635 170.353 19.1574L169.948 18.8414C169.603 19.3234 169.301 19.6363 168.881 19.6363C168.249 19.6363 167.981 19.2912 167.981 18.4674V14.2174H171.622V18.6318C171.622 19.8023 172.195 20.5085 173.334 20.5085C174.295 20.5085 174.792 20.1635 175.347 19.1574L174.94 18.8414C174.597 19.3234 174.295 19.6363 173.876 19.6363ZM164.8 18.3916L165.176 18.7657C164.621 19.6975 163.745 20.5085 162.231 20.5085C160.171 20.5085 159.02 19.0504 158.975 17.1264H158.973V16.925H158.975C159.01 14.9096 160.304 13.3774 162.231 13.3774C164.365 13.3774 165.159 15.117 165.04 16.8148H160.429V16.8599C160.429 18.4367 161.195 19.6363 162.667 19.6363C163.507 19.6363 164.198 19.1251 164.8 18.3916ZM160.445 16.2747L163.597 16.1989C163.658 14.9526 163.194 13.9627 162.125 13.9627C161.211 13.9627 160.58 14.6075 160.445 16.2747ZM181.523 18.3916L181.899 18.7657C181.344 19.6975 180.47 20.5085 178.955 20.5085C176.852 20.5085 175.696 18.9913 175.696 17.0098C175.696 14.9526 177.002 13.3774 178.955 13.3774C181.088 13.3774 181.884 15.117 181.765 16.8148H177.154V16.8599C177.154 18.4367 177.92 19.6363 179.39 19.6363C180.232 19.6363 180.922 19.1251 181.523 18.3916ZM177.168 16.2747L180.32 16.1989C180.382 14.9526 179.916 13.9627 178.85 13.9627C177.934 13.9627 177.302 14.6075 177.168 16.2747ZM186.739 13.3774C185.959 13.3774 185.315 13.9319 184.79 14.5931V13.4225L182.37 13.4822V14.1126C183.242 14.1271 183.466 14.3979 183.466 14.8478V19.1864C183.466 19.5476 183.242 19.6975 182.37 19.712V20.3424H186.081V19.712C185.088 19.6975 184.82 19.5476 184.82 19.1864V15.1476C185.133 14.7575 185.568 14.3076 186.246 14.3366C186.231 14.4285 186.215 14.5189 186.215 14.5931C186.215 15.1331 186.621 15.3895 187.071 15.3895C187.535 15.3895 187.882 14.9816 187.882 14.5027C187.882 13.9029 187.506 13.3774 186.739 13.3774ZM190.863 19.1864V13.4225L188.43 13.4822V14.1126C189.302 14.1271 189.514 14.3979 189.514 14.8478V19.1864C189.514 19.5476 189.286 19.6975 188.417 19.712V20.3424H191.96V19.712C191.073 19.6975 190.863 19.5476 190.863 19.1864ZM190.159 11.786C190.699 11.786 191.06 11.4088 191.06 10.8541C191.06 10.2979 190.699 9.92388 190.159 9.92388C189.62 9.92388 189.257 10.3285 189.257 10.8847C189.257 11.4394 189.62 11.786 190.159 11.786ZM199.292 19.1864V15.4637C199.292 14.1126 198.586 13.3774 197.551 13.3774C196.561 13.3774 195.676 13.9029 194.879 14.4577V13.4225L192.461 13.4822V14.1126C193.333 14.1271 193.557 14.3979 193.557 14.8478V19.1864C193.557 19.5476 193.333 19.6975 192.461 19.712V20.3424H195.855V19.712C195.103 19.6975 194.91 19.5476 194.91 19.1864V14.9671C195.342 14.6979 195.929 14.4124 196.604 14.4124C197.475 14.4124 197.943 14.7575 197.943 16.0037V19.1864C197.943 19.5476 197.746 19.6975 196.982 19.712V20.3424H200.39V19.712C199.503 19.6975 199.292 19.5476 199.292 19.1864ZM205.346 13.7965C205.994 14.1722 206.43 14.8188 206.43 15.6894C206.43 17.1453 205.258 18.0465 203.726 18.0465C203.41 18.0465 203.11 18.016 202.825 17.9417C202.435 18.1353 202.223 18.3464 202.223 18.6011C202.223 18.9011 202.435 19.2025 203.649 19.2025H204.34C206.322 19.2025 207.207 19.683 207.207 20.9438C207.207 22.1449 205.766 23.4219 203.366 23.4219C201.397 23.4219 200.558 22.6544 200.558 21.7693C200.558 21.0793 201.219 20.4488 202.391 20.2538V20.1474C201.504 19.9377 201.188 19.5766 201.188 18.9753C201.188 18.5254 201.591 18.0756 202.241 17.745C201.504 17.4017 201.006 16.7406 201.006 15.7474C201.006 14.3076 202.178 13.3774 203.726 13.3774C204.145 13.3774 204.568 13.4515 204.927 13.587C205.258 12.9694 205.874 12.4164 206.638 12.4164C207.165 12.4164 207.465 12.7309 207.465 13.1806C207.465 13.5708 207.225 13.8432 206.88 13.8432C206.488 13.8432 206.215 13.587 206.215 13.1371C205.915 13.242 205.543 13.5112 205.346 13.7965ZM203.021 20.4182C202.223 20.5698 201.699 20.989 201.699 21.6178C201.699 22.3256 202.465 22.7914 203.965 22.7914C205.242 22.7914 206.098 22.1756 206.098 21.4389C206.098 20.8229 205.753 20.4182 204.25 20.4182H203.021ZM205.016 15.7184C205.016 14.5785 204.447 13.9319 203.665 13.9319C202.913 13.9319 202.404 14.3366 202.404 15.7184C202.404 17.1017 203.004 17.4903 203.769 17.4903C204.505 17.4903 205.016 17.0098 205.016 15.7184ZM54.0508 34.4434C52.2644 34.4434 50.536 33.0472 50.536 30.2838C50.536 27.3688 52.0531 25.808 53.7783 25.808C55.2503 25.808 56.1516 26.7996 56.8126 28.4957H57.3076V25.0873H56.753L56.2999 25.7177C55.7469 25.3889 54.9649 25.0422 53.9298 25.0422C51.0906 25.0422 48.8237 27.3235 48.8237 30.3434C48.8237 33.3922 50.8359 35.4043 53.659 35.4043C55.8517 35.4043 57.1431 33.992 57.7574 32.5651L57.1577 32.2653C56.5418 33.5261 55.7469 34.4434 54.0508 34.4434ZM64.995 34.4439L65.0547 34.9388C64.5145 35.1338 64.184 35.2242 63.7471 35.2242C62.9538 35.2242 62.7281 34.9228 62.6507 34.0666H62.5475C61.9478 34.7405 61.2255 35.2532 60.3403 35.2532C59.0779 35.2532 58.4781 34.5325 58.4781 33.6763C58.4781 33.0766 58.7635 32.4608 59.3939 32.1157C60.5354 31.4852 62.3218 31.2289 62.5475 31.05V30.6292C62.5475 29.2926 62.1719 28.8283 61.1965 28.8283C60.716 28.8283 60.4451 28.9331 60.1904 29.1571C60.3097 29.4135 60.3548 29.6521 60.3548 29.8617C60.3548 30.3132 60.0695 30.6888 59.56 30.6888C59.0344 30.6888 58.7328 30.2987 58.7328 29.8617C58.7328 28.8702 59.963 28.1963 61.4044 28.1963C62.9683 28.1963 63.8986 28.9025 63.8986 30.3438V33.6168C63.8986 34.3536 64.0034 34.5632 64.995 34.4439ZM62.5475 31.6353C60.4161 32.1157 59.9937 32.4301 59.9937 33.3314C59.9937 33.8715 60.2791 34.3536 61.0594 34.3536C61.6608 34.3536 62.217 33.9021 62.5475 33.4361V31.6353ZM72.3317 34.0053V30.2842C72.3317 28.9331 71.6223 28.1963 70.5856 28.1963C69.5956 28.1963 68.7105 28.7218 67.914 29.2764V28.2414L65.4956 28.3027V28.9331C66.3662 28.9476 66.5936 29.2168 66.5936 29.6683V34.0053C66.5936 34.3681 66.3662 34.5164 65.4956 34.5325V35.1629H68.8895V34.5325C68.1382 34.5164 67.9431 34.3681 67.9431 34.0053V29.786C68.3784 29.5182 68.9653 29.2313 69.6408 29.2313C70.5114 29.2313 70.979 29.578 70.979 30.8243V34.0053C70.979 34.3681 70.7823 34.5164 70.0164 34.5325V35.1629H73.4232V34.5325C72.5397 34.5164 72.3317 34.3681 72.3317 34.0053ZM77.4004 34.4294C75.9461 34.4294 75.1481 33.2862 75.1481 31.4998C75.1481 29.5925 75.9735 28.8411 77.0989 28.8411C77.6713 28.8411 78.1501 29.083 78.3323 29.3232C78.1211 29.4425 77.8502 29.7279 77.8502 30.1325C77.8502 30.5856 78.1824 30.8985 78.6934 30.8985C79.2013 30.8985 79.5512 30.4486 79.5512 29.8923C79.5512 29.0378 78.6322 28.1963 77.0699 28.1963C75.1948 28.1963 73.7083 29.744 73.7083 31.8303C73.7083 33.8263 74.953 35.329 76.92 35.329C78.3629 35.329 79.1417 34.6663 79.7721 33.7522L79.3997 33.3749C78.887 33.9618 78.2259 34.4294 77.4004 34.4294ZM86.1839 33.2121L86.5579 33.5861C86.0033 34.5164 85.1311 35.329 83.6139 35.329C81.5131 35.329 80.3571 33.8119 80.3571 31.8303C80.3571 29.7731 81.6631 28.1963 83.6139 28.1963C85.747 28.1963 86.5434 29.9375 86.4225 31.6353H81.813V31.6788C81.813 33.2556 82.5788 34.4584 84.0508 34.4584C84.8925 34.4584 85.5825 33.9473 86.1839 33.2121ZM81.8275 31.0935L84.9795 31.0193C85.0408 29.7731 84.5764 28.7814 83.5107 28.7814C82.5933 28.7814 81.9629 29.4279 81.8275 31.0935ZM91.4004 28.1963C90.6168 28.1963 89.9735 28.7508 89.4479 29.4135V28.2414L87.0294 28.3027V28.9331C87.9001 28.9476 88.1258 29.2168 88.1258 29.6683V34.0053C88.1258 34.3681 87.9001 34.5164 87.0294 34.5325V35.1629H90.7377V34.5325C89.7478 34.5164 89.4785 34.3681 89.4785 34.0053V29.9681C89.7913 29.578 90.2282 29.1265 90.9038 29.1571C90.8893 29.249 90.8748 29.3377 90.8748 29.4135C90.8748 29.9536 91.2779 30.2083 91.7293 30.2083C92.1952 30.2083 92.5402 29.8021 92.5402 29.3232C92.5402 28.7218 92.1646 28.1963 91.4004 28.1963ZM100.668 34.4434C98.8798 34.4434 97.153 33.0472 97.153 30.2838C97.153 27.3688 98.6686 25.808 100.395 25.808C101.866 25.808 102.767 26.7996 103.428 28.4957H103.925V25.0873H103.368L102.919 25.7177C102.364 25.3889 101.58 25.0422 100.547 25.0422C97.7076 25.0422 95.4392 27.3235 95.4392 30.3434C95.4392 33.3922 97.4513 35.4043 100.274 35.4043C102.467 35.4043 103.759 33.992 104.374 32.5651L103.775 32.2653C103.157 33.5261 102.364 34.4434 100.668 34.4434ZM110.977 33.2121L111.351 33.5861C110.795 34.5164 109.926 35.329 108.408 35.329C106.306 35.329 105.152 33.8119 105.152 31.8303C105.152 29.7731 106.456 28.1963 108.408 28.1963C110.538 28.1963 111.338 29.9375 111.217 31.6353H106.607V31.6788C106.607 33.2556 107.372 34.4584 108.844 34.4584C109.682 34.4584 110.377 33.9473 110.977 33.2121ZM106.622 31.0935L109.774 31.0193C109.835 29.7731 109.368 28.7814 108.305 28.7814C107.386 28.7814 106.757 29.4279 106.622 31.0935ZM118.655 34.0053V30.2842C118.655 28.9331 117.952 28.1963 116.915 28.1963C115.924 28.1963 115.04 28.7218 114.242 29.2764V28.2414L111.825 28.3027V28.9331C112.696 28.9476 112.92 29.2168 112.92 29.6683V34.0053C112.92 34.3681 112.696 34.5164 111.825 34.5325V35.1629H115.218V34.5325C114.468 34.5164 114.273 34.3681 114.273 34.0053V29.786C114.708 29.5182 115.293 29.2313 115.967 29.2313C116.841 29.2313 117.307 29.578 117.307 30.8243V34.0053C117.307 34.3681 117.11 34.5164 116.345 34.5325V35.1629H119.753V34.5325C118.868 34.5164 118.655 34.3681 118.655 34.0053ZM123.084 34.4584C122.452 34.4584 122.183 34.1117 122.183 33.2862V29.0378H124.314V28.3027H122.183V25.7955L120.862 26.3341V28.2704L119.601 28.5429V29.0378H120.833V33.4506C120.833 34.6228 121.401 35.329 122.542 35.329C123.503 35.329 123.998 34.9823 124.554 33.9779L124.148 33.6619C123.805 34.1439 123.503 34.4584 123.084 34.4584ZM130.731 33.2121L131.105 33.5861C130.55 34.5164 129.68 35.329 128.163 35.329C126.06 35.329 124.906 33.8119 124.906 31.8303C124.906 29.7731 126.21 28.1963 128.163 28.1963C130.294 28.1963 131.091 29.9375 130.971 31.6353H126.36V31.6788C126.36 33.2556 127.128 34.4584 128.598 34.4584C129.438 34.4584 130.128 33.9473 130.731 33.2121ZM126.375 31.0935L129.528 31.0193C129.589 29.7731 129.123 28.7814 128.056 28.7814C127.142 28.7814 126.512 29.4279 126.375 31.0935ZM135.947 28.1963C135.167 28.1963 134.522 28.7508 133.996 29.4135V28.2414L131.579 28.3027V28.9331C132.45 28.9476 132.674 29.2168 132.674 29.6683V34.0053C132.674 34.3681 132.45 34.5164 131.579 34.5325V35.1629H135.288V34.5325C134.296 34.5164 134.029 34.3681 134.029 34.0053V29.9681C134.34 29.578 134.773 29.1265 135.454 29.1571C135.436 29.249 135.423 29.3377 135.423 29.4135C135.423 29.9536 135.826 30.2083 136.276 30.2083C136.744 30.2083 137.089 29.8021 137.089 29.3232C137.089 28.7218 136.713 28.1963 135.947 28.1963Z" fill="#002569"/>
<path d="M34.0795 6.25217C30.7802 2.48666 25.8651 0.577332 19.4715 0.577332C13.0775 0.577332 8.1627 2.48666 4.86321 6.25217C1.63627 9.93513 0 15.4006 0 22.4968C0 29.593 1.63627 35.0585 4.86321 38.7415C8.1627 42.507 13.0775 44.4163 19.4715 44.4163C25.8651 44.4163 30.7802 42.507 34.0795 38.7415C37.3066 35.0585 38.9429 29.593 38.9429 22.4968C38.9429 15.4006 37.3066 9.93513 34.0795 6.25217ZM19.4715 41.8897C8.17975 41.8897 2.53401 35.4254 2.53401 22.4968C2.53401 9.56822 8.17975 3.10388 19.4715 3.10388C30.7629 3.10388 36.4089 9.56822 36.4089 22.4968C36.4089 35.4254 30.7629 41.8897 19.4715 41.8897ZM19.4715 7.58648L27.1991 15.3142L25.4122 17.1011L20.735 12.4238V20.3926H26.2814V22.9196H20.735V24.8752H26.2814V27.4022H20.735V29.3578H26.2814V31.8848H20.735V37.4071H18.2079V31.8848H12.6615V29.3578H18.2079V27.4022H12.6615V24.8752H18.2079V22.9196H12.6615V20.3926H18.2079V12.424L13.5308 17.1011L11.7438 15.3142L19.4715 7.58648Z" fill="#002569"/>
</g>
<defs>
<clipPath id="clip0_253_3382">
<rect width="207.465" height="43.8389" fill="white" transform="translate(0 0.577332)"/>
</clipPath>
</defs>
</svg>
