<svg xmlns="http://www.w3.org/2000/svg" xmlns:xlink="http://www.w3.org/1999/xlink" width="65.563" height="66.276" viewBox="0 0 65.563 66.276" class="position-fixed banner-call-icon"><defs><filter id="a" x="0" y="0" width="65.563" height="66.276" filterUnits="userSpaceOnUse"><feOffset dy="1" input="SourceAlpha"></feOffset><feGaussianBlur stdDeviation="2" result="b"></feGaussianBlur><feFlood flood-opacity="0.251"></feFlood><feComposite operator="in" in2="b"></feComposite><feComposite in="SourceGraphic"></feComposite></filter></defs><g transform="translate(-1254 -563)"><g transform="translate(1260 568)"><g transform="matrix(1, 0, 0, 1, -6, -5)" filter="url(#a)"><path d="M73.78,47.808C69.722,64.279,51.9,73.328,36.5,66.038l-12.652.079,1.987-9.157a26.664,26.664,0,0,1-4-21.95A27.065,27.065,0,0,1,54.426,15.087C68.617,18.582,77.339,33.364,73.78,47.808Z" transform="translate(-15.01 -9.31)" fill="#fff" fill-rule="evenodd"></path></g></g><g transform="translate(1274.758 582.134)"><path d="M6.086,11.114a15,15,0,0,0,7.806,7.806,1.225,1.225,0,0,0,1.588-.529L16.01,17.2a1.33,1.33,0,0,1,1.455-.662l6.616,1.72a1.271,1.271,0,0,1,.926,1.191v4.366a1.186,1.186,0,0,1-1.191,1.191H20.641A20.667,20.667,0,0,1,0,4.366V1.323A1.25,1.25,0,0,1,1.323,0H5.557A1.439,1.439,0,0,1,6.88.926L8.468,7.542A1.254,1.254,0,0,1,7.806,9l-1.191.662A1.112,1.112,0,0,0,6.086,11.114Z" transform="translate(0)" fill="#0b9ee0" fill-rule="evenodd"></path></g></g></svg>